<svg width="48" height="48" viewBox="0 0 48 48" fill="none" xmlns="http://www.w3.org/2000/svg">
<g clip-path="url(#clip0_58_2)">
<path d="M20.9297 -1.97266C20.9297 -1.95703 20.8438 -1.45312 20.7344 -0.851562C20.5039 0.46875 20.0117 3.26953 19.9531 3.62891C19.9297 3.76953 19.8945 3.90234 19.8789 3.92969C19.8672 3.95312 19.6172 4.01953 19.3281 4.07422C18.4102 4.25391 17.4961 4.5 16.5977 4.8125C16.3359 4.90234 16.1758 4.94141 16.1484 4.91797C16.125 4.89844 15.2617 3.87109 14.2305 2.63281C12.7344 0.839844 12.3398 0.386719 12.2734 0.394531C12.1875 0.410156 8.79688 2.35938 8.76172 2.41406C8.75 2.43359 9.19922 3.70312 9.75781 5.23828C10.3164 6.77344 10.7656 8.05469 10.75 8.08203C10.7383 8.11328 10.5859 8.25781 10.4102 8.40234C9.96875 8.77344 8.86719 9.86719 8.46875 10.3359C8.28516 10.5508 8.11328 10.7383 8.08203 10.75C8.05469 10.7656 6.77344 10.3164 5.23828 9.75781C3.70703 9.19531 2.43359 8.75 2.41406 8.76172C2.35938 8.79688 0.410156 12.1875 0.394531 12.2734C0.386719 12.3398 0.816406 12.7188 2.51172 14.1328C3.68359 15.1094 4.71484 15.9727 4.80078 16.0469L4.95703 16.1836L4.73828 16.8125C4.49219 17.5312 4.22266 18.5547 4.07422 19.3281C4.01953 19.6172 3.95312 19.8672 3.92969 19.8789C3.90234 19.8945 3.76953 19.9297 3.62891 19.9531C3.35938 19.9961 2.21484 20.1992 -0.382812 20.6562C-1.24609 20.8047 -1.96094 20.9297 -1.97656 20.9297C-1.98828 20.9297 -2 21.8594 -2 23C-2 24.1367 -1.98828 25.0703 -1.97656 25.0703C-1.96094 25.0703 -1.24609 25.1953 -0.382812 25.3438C2.21484 25.8008 3.35938 26.0039 3.62891 26.0469C3.76953 26.0703 3.90234 26.1055 3.92969 26.1211C3.95312 26.1328 4.01953 26.3828 4.07422 26.6719C4.22266 27.4453 4.49219 28.4688 4.73828 29.1875L4.95703 29.8164L4.80078 29.9531C4.71484 30.0273 3.68359 30.8906 2.51172 31.8672C0.816406 33.2812 0.386719 33.6602 0.394531 33.7266C0.410156 33.8125 2.35938 37.2031 2.41406 37.2383C2.43359 37.25 3.70703 36.8047 5.23828 36.2422C6.77344 35.6836 8.05469 35.2344 8.08203 35.25C8.11328 35.2617 8.28516 35.4492 8.46875 35.6641C8.86719 36.1328 9.96875 37.2266 10.4102 37.5977C10.5859 37.7422 10.7383 37.8867 10.75 37.918C10.7656 37.9453 10.3164 39.2266 9.75781 40.7617C9.19922 42.2969 8.75 43.5664 8.76172 43.5859C8.79688 43.6406 12.1875 45.5898 12.2734 45.6055C12.3398 45.6133 12.7344 45.1602 14.2305 43.3672C15.2617 42.1289 16.125 41.1016 16.1484 41.082C16.1758 41.0586 16.3359 41.0977 16.5977 41.1875C17.4961 41.5 18.4102 41.7461 19.3281 41.9258C19.6172 41.9805 19.8672 42.0469 19.8789 42.0703C19.8945 42.0977 19.9297 42.2305 19.9531 42.3711C19.9961 42.6406 20.1992 43.7852 20.6562 46.3828C20.8047 47.2461 20.9297 47.9609 20.9297 47.9766C20.9297 47.9883 21.8633 48 23 48C24.3008 48 25.0703 47.9844 25.0703 47.9609C25.0703 47.9414 25.2031 47.1719 25.3633 46.2539C25.5273 45.3359 25.7578 44.0195 25.875 43.332C25.9961 42.6445 26.1055 42.0703 26.1211 42.0547C26.1328 42.0391 26.3828 41.9805 26.6719 41.9258C27.5898 41.7461 28.6328 41.4648 29.4219 41.1836L29.8086 41.043L29.9492 41.1992C30.0273 41.2852 30.8906 42.3125 31.8672 43.4844C33.2812 45.1836 33.6602 45.6133 33.7266 45.6055C33.8125 45.5898 37.2031 43.6406 37.2383 43.5859C37.25 43.5664 36.8008 42.2891 36.2383 40.75L35.2148 37.9492L35.3906 37.7891C35.4844 37.6992 35.8008 37.4141 36.0898 37.1484C36.3828 36.8867 36.8477 36.4219 37.125 36.1172C37.4023 35.8125 37.6992 35.4844 37.7891 35.3906L37.9453 35.2188L40.75 36.2422C43.0625 37.082 43.5664 37.2539 43.6055 37.2109C43.7227 37.0898 45.6211 33.7344 45.6055 33.6875C45.5938 33.6562 44.5625 32.7773 43.3164 31.7305C42.0664 30.6836 41.0469 29.8242 41.0469 29.8164C41.0469 29.8086 41.1133 29.6094 41.1953 29.3789C41.4883 28.5586 41.7773 27.4766 41.9453 26.5859C42.0039 26.2812 42.0508 26.125 42.0898 26.1094C42.1406 26.0898 47.918 25.0703 47.9766 25.0703C47.9883 25.0703 48 24.1367 48 23C48 21.8594 47.9883 20.9297 47.9766 20.9297C47.9609 20.9297 47.2461 20.8047 46.3828 20.6562C43.7812 20.1992 42.6406 19.9961 42.3672 19.9492C42.2227 19.9258 42.0859 19.8828 42.0625 19.8555C42.0391 19.8281 41.9805 19.5898 41.9297 19.3242C41.7539 18.4219 41.4844 17.4297 41.1953 16.6211C41.1133 16.3906 41.0469 16.1914 41.0469 16.1836C41.0469 16.1758 42.0664 15.3164 43.3164 14.2695C44.5625 13.2227 45.5938 12.3438 45.6055 12.3125C45.6211 12.2656 43.7227 8.91016 43.6055 8.78906C43.5664 8.74609 43.0625 8.91797 40.75 9.75781L37.9453 10.7812L37.7891 10.6094C37.6992 10.5156 37.4023 10.1875 37.125 9.88281C36.8477 9.57812 36.3828 9.11328 36.0898 8.85156C35.8008 8.58594 35.4844 8.30078 35.3906 8.21094L35.2148 8.05078L36.2383 5.25C36.8008 3.71094 37.25 2.43359 37.2383 2.41406C37.2031 2.35938 33.8125 0.410156 33.7266 0.394531C33.6602 0.386719 33.2812 0.816406 31.8672 2.51562C30.8906 3.6875 30.0273 4.71484 29.9492 4.80078L29.8086 4.95703L29.4219 4.81641C28.6328 4.53516 27.5898 4.25391 26.6719 4.07422C26.3828 4.01953 26.1328 3.96094 26.1211 3.94531C26.1055 3.92969 25.9961 3.35547 25.875 2.66797C25.7578 1.98047 25.5273 0.664062 25.3633 -0.253906C25.2031 -1.17188 25.0703 -1.94141 25.0703 -1.96094C25.0703 -1.98438 24.3008 -2 23 -2C21.8633 -2 20.9297 -1.98828 20.9297 -1.97266ZM24.8359 8.28906C30.0977 9.01562 34.3906 12.2031 36.543 16.9883C38.0938 20.4219 38.2344 24.5273 36.9258 28.0781C35.1133 33 30.832 36.625 25.7148 37.5664C24.6758 37.7578 24.3672 37.7812 23 37.7812C21.6328 37.7812 21.3242 37.7578 20.2852 37.5664C16.7031 36.9062 13.3945 34.8672 11.2031 31.9648C9.65234 29.9062 8.72266 27.6797 8.32031 25.0508C8.22656 24.4297 8.21875 24.2969 8.21875 23C8.21875 21.7031 8.22656 21.5703 8.32031 20.9492C8.375 20.582 8.46875 20.0742 8.52734 19.8164C9.5 15.4375 12.3711 11.7539 16.3828 9.74609C18.0625 8.90234 19.9805 8.37109 21.8477 8.21875C22.3281 8.17969 24.4023 8.23047 24.8359 8.28906Z" fill="#DA7110"/>
</g>
<defs>
<clipPath id="clip0_58_2">
<rect width="48" height="48" fill="white"/>
</clipPath>
</defs>
</svg>
